<svg width="20" height="20" viewBox="0 0 20 20" fill="none" xmlns="http://www.w3.org/2000/svg">
<path d="M19.5003 9.11016L15.4762 12.755L16.6817 18.1816C16.7455 18.4653 16.7273 18.7622 16.6293 19.0352C16.5314 19.3082 16.3581 19.5452 16.1312 19.7166C15.9042 19.8879 15.6335 19.986 15.3531 19.9986C15.0727 20.0112 14.7949 19.9377 14.5545 19.7874L9.9942 16.9166L5.44368 19.7874C5.20328 19.9377 4.92551 20.0112 4.64509 19.9986C4.36467 19.986 4.09405 19.8879 3.86706 19.7166C3.64007 19.5452 3.46679 19.3082 3.36887 19.0352C3.27096 18.7622 3.25275 18.4653 3.31654 18.1816L4.5202 12.7606L0.495223 9.11016C0.282338 8.91961 0.1284 8.66806 0.052713 8.38706C-0.022974 8.10607 -0.0170404 7.80814 0.0697694 7.53063C0.156579 7.25312 0.320401 7.00839 0.540691 6.82713C0.760981 6.64586 1.02793 6.53614 1.30807 6.5117L6.61344 6.03479L8.68437 0.908257C8.79251 0.639258 8.97493 0.409482 9.20864 0.247861C9.44236 0.08624 9.71692 0 9.99777 0C10.2786 0 10.5532 0.08624 10.7869 0.247861C11.0206 0.409482 11.203 0.639258 11.3112 0.908257L13.3883 6.03479L18.6919 6.5117C18.9721 6.53614 19.239 6.64586 19.4593 6.82713C19.6796 7.00839 19.8434 7.25312 19.9302 7.53063C20.017 7.80814 20.023 8.10607 19.9473 8.38706C19.8716 8.66806 19.7177 8.91961 19.5048 9.11016H19.5003Z" fill="#FF8A00"/>
</svg>
